<svg viewBox="0 0 64 64" fill="none" xmlns="http://www.w3.org/2000/svg">
<path d="M10.6666 6.4C8.3135 6.4 6.3999 8.3136 6.3999 10.6667V53.3333C6.3999 55.6864 8.3135 57.6 10.6666 57.6H40.5332C42.8863 57.6 44.7999 55.6864 44.7999 53.3333V34.1333H27.7332C26.5556 34.1333 25.5999 33.1776 25.5999 32C25.5999 30.8224 26.5556 29.8667 27.7332 29.8667H44.7999V10.6667C44.7999 8.3136 42.8863 6.4 40.5332 6.4H10.6666ZM44.7999 29.8667V34.1333H56.7166L51.8249 39.025C51.6202 39.2216 51.4567 39.457 51.3441 39.7176C51.2315 39.9781 51.172 40.2585 51.1691 40.5423C51.1662 40.8261 51.22 41.1077 51.3273 41.3705C51.4345 41.6333 51.5932 41.872 51.7939 42.0727C51.9946 42.2734 52.2333 42.432 52.4961 42.5393C52.7589 42.6466 53.0404 42.7004 53.3242 42.6975C53.6081 42.6946 53.8885 42.6351 54.149 42.5225C54.4095 42.4099 54.645 42.2464 54.8416 42.0417L63.3749 33.5083C63.7748 33.1082 63.9995 32.5657 63.9995 32C63.9995 31.4343 63.7748 30.8918 63.3749 30.4917L54.8416 21.9583C54.6428 21.754 54.405 21.5915 54.1424 21.4806C53.8797 21.3697 53.5975 21.3125 53.3124 21.3125C52.888 21.3126 52.4733 21.4393 52.1213 21.6763C51.7693 21.9134 51.4959 22.25 51.3362 22.6432C51.1765 23.0364 51.1377 23.4683 51.2248 23.8837C51.3118 24.299 51.5208 24.679 51.8249 24.975L56.7166 29.8667H44.7999Z"/>
</svg>
