<svg viewBox="0 0 92 92" fill="none" xmlns="http://www.w3.org/2000/svg">
<path d="M45.9521 9.15809C45.1398 9.17079 44.3657 9.50524 43.7998 10.088C43.2338 10.6708 42.9222 11.4544 42.9333 12.2667V46C42.9276 46.4064 43.0027 46.8098 43.1542 47.187C43.3057 47.5641 43.5307 47.9073 43.8161 48.1967C44.1014 48.4861 44.4414 48.7159 44.8163 48.8727C45.1912 49.0296 45.5936 49.1104 46 49.1104C46.4064 49.1104 46.8088 49.0296 47.1837 48.8727C47.5586 48.7159 47.8986 48.4861 48.184 48.1967C48.4693 47.9073 48.6943 47.5641 48.8458 47.187C48.9973 46.8098 49.0724 46.4064 49.0667 46V12.2667C49.0723 11.8564 48.9955 11.4492 48.8409 11.0691C48.6863 10.689 48.457 10.3438 48.1666 10.0539C47.8762 9.76406 47.5305 9.53542 47.1501 9.38154C46.7698 9.22766 46.3624 9.15168 45.9521 9.15809ZM30.6547 12.9195C30.1721 12.9268 29.6981 13.0479 29.2711 13.2729C17.3712 19.3633 9.20001 31.7333 9.20001 46C9.20001 66.2874 25.7126 82.8 46 82.8C66.2874 82.8 82.8 66.2874 82.8 46C82.8 31.7333 74.6288 19.3633 62.7289 13.2729C62.0045 12.9028 61.1628 12.8356 60.3889 13.0861C59.615 13.3366 58.9722 13.8842 58.6021 14.6086C58.232 15.333 58.1648 16.1747 58.4152 16.9486C58.6657 17.7226 59.2134 18.3653 59.9378 18.7354C69.8603 23.8138 76.6667 34.0712 76.6667 46C76.6667 62.9726 62.9726 76.6667 46 76.6667C29.0274 76.6667 15.3333 62.9726 15.3333 46C15.3333 34.0712 22.1397 23.8138 32.0623 18.7354C32.6863 18.4269 33.1869 17.9151 33.4816 17.2844C33.7763 16.6536 33.8476 15.9414 33.6839 15.2647C33.5201 14.588 33.131 13.9872 32.5805 13.561C32.03 13.1348 31.3508 12.9086 30.6547 12.9195Z" fill="url(#paint0_radial_7_111)"/>
<path d="M45.9521 9.15809C45.1398 9.17079 44.3657 9.50524 43.7998 10.088C43.2338 10.6708 42.9222 11.4544 42.9333 12.2667V46C42.9276 46.4064 43.0027 46.8098 43.1542 47.187C43.3057 47.5641 43.5307 47.9073 43.8161 48.1967C44.1014 48.4861 44.4414 48.7159 44.8163 48.8727C45.1912 49.0296 45.5936 49.1104 46 49.1104C46.4064 49.1104 46.8088 49.0296 47.1837 48.8727C47.5586 48.7159 47.8986 48.4861 48.184 48.1967C48.4693 47.9073 48.6943 47.5641 48.8458 47.187C48.9973 46.8098 49.0724 46.4064 49.0667 46V12.2667C49.0723 11.8564 48.9955 11.4492 48.8409 11.0691C48.6863 10.689 48.457 10.3438 48.1666 10.0539C47.8762 9.76406 47.5305 9.53542 47.1501 9.38154C46.7698 9.22766 46.3624 9.15168 45.9521 9.15809ZM30.6547 12.9195C30.1721 12.9268 29.6981 13.0479 29.2711 13.2729C17.3712 19.3633 9.20001 31.7333 9.20001 46C9.20001 66.2874 25.7126 82.8 46 82.8C66.2874 82.8 82.8 66.2874 82.8 46C82.8 31.7333 74.6288 19.3633 62.7289 13.2729C62.0045 12.9028 61.1628 12.8356 60.3889 13.0861C59.615 13.3366 58.9722 13.8842 58.6021 14.6086C58.232 15.333 58.1648 16.1747 58.4152 16.9486C58.6657 17.7226 59.2134 18.3653 59.9378 18.7354C69.8603 23.8138 76.6667 34.0712 76.6667 46C76.6667 62.9726 62.9726 76.6667 46 76.6667C29.0274 76.6667 15.3333 62.9726 15.3333 46C15.3333 34.0712 22.1397 23.8138 32.0623 18.7354C32.6863 18.4269 33.1869 17.9151 33.4816 17.2844C33.7763 16.6536 33.8476 15.9414 33.6839 15.2647C33.5201 14.588 33.131 13.9872 32.5805 13.561C32.03 13.1348 31.3508 12.9086 30.6547 12.9195Z" fill="url(#paint1_radial_7_111)"/>
<defs>
<radialGradient id="paint0_radial_7_111" cx="0" cy="0" r="1" gradientUnits="userSpaceOnUse" gradientTransform="translate(82.8 82.8001) rotate(-140.87) scale(116.624 116.557)">
<stop stop-color="#F709AD"/>
<stop offset="1" stop-color="#F709AD" stop-opacity="0"/>
</radialGradient>
<radialGradient id="paint1_radial_7_111" cx="0" cy="0" r="1" gradientUnits="userSpaceOnUse" gradientTransform="translate(9.20001 9.20014) rotate(40.0429) scale(142.205 142.123)">
<stop stop-color="#6007B0"/>
<stop offset="1" stop-opacity="0"/>
</radialGradient>
</defs>
</svg>
