<svg viewBox="0 0 64 64" fill="none" xmlns="http://www.w3.org/2000/svg">
<path d="M32 6.3999C17.8624 6.3999 6.40002 17.8623 6.40002 31.9999C6.40002 32.6079 6.44902 33.2026 6.49169 33.7999L16.075 36.3041C17.3444 34.1089 19.5575 32.528 22.1709 32.1291L23.6084 29.5499C23.5252 28.9547 23.4667 28.3519 23.4667 27.7332C23.4667 20.6634 29.1968 14.9332 36.2667 14.9332C43.3366 14.9332 49.0667 20.6634 49.0667 27.7332C49.0667 34.8031 43.3366 40.5332 36.2667 40.5332C35.648 40.5332 35.0452 40.4748 34.45 40.3916L31.8709 41.8291C31.2437 45.9229 27.7355 49.0666 23.4667 49.0666C18.7542 49.0666 14.9334 45.2458 14.9334 40.5332C14.9334 40.4948 14.9459 40.4591 14.9459 40.4207L7.24169 38.4124C10.0897 49.4417 20.079 57.5999 32 57.5999C46.1376 57.5999 57.6 46.1375 57.6 31.9999C57.6 17.8623 46.1376 6.3999 32 6.3999ZM36.2667 19.1999C31.5606 19.1999 27.7334 23.0271 27.7334 27.7332C27.7334 32.4394 31.5606 36.2666 36.2667 36.2666C40.9728 36.2666 44.8 32.4394 44.8 27.7332C44.8 23.0271 40.9728 19.1999 36.2667 19.1999ZM36.2667 23.4666C38.6198 23.4666 40.5334 25.3802 40.5334 27.7332C40.5334 30.0863 38.6198 31.9999 36.2667 31.9999C33.9136 31.9999 32 30.0863 32 27.7332C32 25.3802 33.9136 23.4666 36.2667 23.4666ZM23.4667 35.1999C21.792 35.1999 20.3146 35.9861 19.3375 37.1957L24.0292 38.4749C25.1663 38.7864 25.8385 39.9587 25.5292 41.0957C25.2668 42.0429 24.4054 42.6666 23.4667 42.6666C23.2811 42.6666 23.0941 42.6428 22.9042 42.5916L18.2084 41.3124C18.5902 43.8852 20.7872 45.8666 23.4667 45.8666C26.4128 45.8666 28.8 43.4794 28.8 40.5332C28.8 37.5871 26.4128 35.1999 23.4667 35.1999Z"/>
</svg>
